<?xml version="1.0" standalone="no"?>
<!DOCTYPE svg PUBLIC "-//W3C//DTD SVG 20010904//EN"
 "http://www.w3.org/TR/2001/REC-SVG-20010904/DTD/svg10.dtd">
<svg version="1.0" xmlns="http://www.w3.org/2000/svg"
 width="165.000000pt" height="112.000000pt" viewBox="0 0 165.000000 112.000000"
 preserveAspectRatio="xMidYMid meet">
<metadata>
Created by potrace 1.16, written by Peter Selinger 2001-2019
</metadata>
<g transform="translate(0.000000,112.000000) scale(0.100000,-0.100000)"
fill="#000000" stroke="none">
<path d="M622 725 c3 -22 17 -67 30 -100 l25 -60 -51 -98 c-62 -119 -59 -131
33 -135 38 -2 61 1 61 8 0 6 -23 10 -55 10 -37 0 -57 4 -61 13 -3 8 15 51 39
96 l44 82 41 -65 c23 -37 46 -66 52 -66 5 0 10 3 10 6 0 10 -153 329 -163 339
-6 6 -8 -5 -5 -30z"/>
<path d="M830 733 c-19 -8 -54 -30 -77 -49 l-42 -35 26 -54 27 -54 40 37 c91
84 167 78 122 -10 -14 -26 -13 -26 37 -47 27 -12 51 -20 52 -19 39 47 46 151
14 192 -43 55 -125 71 -199 39z"/>
</g>
</svg>
